HIERARCHY
ROOT Bip001_Pelvis
{
  OFFSET 7.937 94.8971 -8.5489
  CHANNELS 6 Xposition Yposition Zposition Zrotation Xrotation Yrotation
  JOINT Bip001_Spine
  {
    OFFSET 1.44608e-005 10.4157 -0.0118244
    CHANNELS 3 Zrotation Xrotation Yrotation
    JOINT Bip001_L_Thigh
    {
      OFFSET 11.2582 -10.4157 0.0118432
      CHANNELS 3 Zrotation Xrotation Yrotation
      JOINT Bip001_L_Calf
      {
        OFFSET -0.720717 -44.8687 0.366937
        CHANNELS 3 Zrotation Xrotation Yrotation
        JOINT Bip001_L_Foot
        {
          OFFSET -0.664439 -41.3745 -3.62995
          CHANNELS 3 Zrotation Xrotation Yrotation
          JOINT Bip001_L_Toe0
          {
            OFFSET 0.0541047 -10.4146 13.4033
            CHANNELS 3 Zrotation Xrotation Yrotation
            End Site
            {
              OFFSET -1.04503e-005 0 7.70137
            }
          }
        }
      }
    }
    JOINT Bip001_R_Thigh
    {
      OFFSET -11.2582 -10.4156 0.0118122
      CHANNELS 3 Zrotation Xrotation Yrotation
      JOINT Bip001_R_Calf
      {
        OFFSET 0.72059 -44.8687 0.36676
        CHANNELS 3 Zrotation Xrotation Yrotation
        JOINT Bip001_R_Foot
        {
          OFFSET 0.664321 -41.3745 -3.62979
          CHANNELS 3 Zrotation Xrotation Yrotation
          JOINT Bip001_R_Toe0
          {
            OFFSET -0.05417 -10.4146 13.4033
            CHANNELS 3 Zrotation Xrotation Yrotation
            End Site
            {
              OFFSET -1.04873e-005 0 7.70137
            }
          }
        }
      }
    }
    JOINT Bip001_Spine1
    {
      OFFSET 1.90638e-005 14.8539 1.10727
      CHANNELS 3 Zrotation Xrotation Yrotation
      JOINT Bip001_Spine2
      {
        OFFSET 2.28934e-005 14.7848 -1.7233
        CHANNELS 3 Zrotation Xrotation Yrotation
        JOINT Bip001_Neck
        {
          OFFSET 2.24514e-005 15.6905 -0.498826
          CHANNELS 3 Zrotation Xrotation Yrotation
          JOINT Bip001_L_Clavicle
          {
            OFFSET 6.17691 -0.000591152 0.00852867
            CHANNELS 3 Zrotation Xrotation Yrotation
            JOINT Bip001_L_UpperArm
            {
              OFFSET 11.773 -0.0611878 0.00197697
              CHANNELS 3 Zrotation Xrotation Yrotation
              JOINT Bip001_L_Forearm
              {
                OFFSET 26.4515 0.0817568 -2.19579
                CHANNELS 3 Zrotation Xrotation Yrotation
                JOINT Bip001_L_Hand
                {
                  OFFSET 32.8677 0.156744 1.67112
                  CHANNELS 3 Zrotation Xrotation Yrotation
                  JOINT Bip001_L_Finger0
                  {
                    OFFSET 6.16268 -2.25226 6.01674
                    CHANNELS 3 Zrotation Xrotation Yrotation
                    End Site
                    {
                      OFFSET 4.30499 -1.46662 0.618148
                    }
                  }
                  JOINT Bip001_L_Finger1
                  {
                    OFFSET 11.2957 -0.718374 -0.201963
                    CHANNELS 3 Zrotation Xrotation Yrotation
                    End Site
                    {
                      OFFSET 6.31952 -0.405163 -0.0802303
                    }
                  }
                }
              }
            }
          }
          JOINT Bip001_R_Clavicle
          {
            OFFSET -6.17691 -0.000574027 0.00851165
            CHANNELS 3 Zrotation Xrotation Yrotation
            JOINT Bip001_R_UpperArm
            {
              OFFSET -11.773 -0.0611516 0.00194365
              CHANNELS 3 Zrotation Xrotation Yrotation
              JOINT Bip001_R_Forearm
              {
                OFFSET -26.4514 0.0822334 -2.19736
                CHANNELS 3 Zrotation Xrotation Yrotation
                JOINT Bip001_R_Hand
                {
                  OFFSET -32.8677 0.156817 1.67144
                  CHANNELS 3 Zrotation Xrotation Yrotation
                  JOINT Bip001_R_Finger0
                  {
                    OFFSET -6.1627 -2.25224 6.0167
                    CHANNELS 3 Zrotation Xrotation Yrotation
                    End Site
                    {
                      OFFSET -4.30499 -1.46662 0.618134
                    }
                  }
                  JOINT Bip001_R_Finger1
                  {
                    OFFSET -11.2958 -0.718344 -0.201994
                    CHANNELS 3 Zrotation Xrotation Yrotation
                    End Site
                    {
                      OFFSET -6.31952 -0.405146 -0.0802475
                    }
                  }
                }
              }
            }
          }
          JOINT Bip001_Head
          {
            OFFSET 1.11782e-005 11.4912 2.09908
            CHANNELS 3 Zrotation Xrotation Yrotation
            End Site
            {
              OFFSET 2.95144e-005 21.2823 -2.83069e-005
            }
          }
        }
      }
    }
  }
}
MOTION
Frames:	8
Frame Time:	0.04
7.64891 95.4341 -7.80358 0.0963019 -4.36089 0.27945 0.0347565 1.31758 -0.389305 5.53291 -4.36814 9.28288 -1.26911 15.059 -0.574424 -3.12992 -6.53346 0.534449 0.667771 -9.89179 -0.206166 -7.97706 -3.2832 -0.122515 0.0741031 15.4813 4.57389 0.724854 -8.56081 -10.6482 -0.792252 -11.5852 0.445549 -0.035496 2.63526 -0.779277 -0.035496 2.63526 -0.779278 -0.912118 0.443049 -0.239806 -28.7917 5.49592 -12.6408 -49.6274 42.1488 4.99954 10.4703 -3.24643 -24.6921 -1.68176 -0.587325 -2.30112 -6.36111e-015 -6.36111e-015 -0 -3.18055e-015 -3.18056e-015 1.59028e-015 33.3676 6.03441 12.7059 56.9273 31.0107 -21.3063 9.06112 -34.4391 41.7279 4.56808 0.962451 -23.5646 -3.97569e-016 0 7.95139e-016 -5.96354e-016 -3.18056e-015 7.95139e-016 -2.24077 3.66468 0.0618063 
7.67201 95.3917 -7.84115 0.168548 -4.28624 1.02607 -0.016429 1.28262 -0.339362 5.51746 -4.73659 9.10163 -1.18776 15.3748 -1.10733 -3.06872 -6.58287 0.442265 0.676839 -9.87923 -0.182054 -7.98103 -3.263 0.36667 0.339705 15.7153 4.06725 0.572096 -8.76537 -11.3789 -0.753919 -11.5646 0.344377 -0.131883 2.56562 -0.677973 -0.131883 2.56562 -0.677973 -1.21183 0.408059 0.110917 -28.3672 5.64527 -12.8414 -49.8385 41.6831 5.36823 10.856 -1.42912 -24.1343 -2.154 -0.57581 -2.49617 -3.18055e-015 -3.18055e-015 -0 -3.18055e-015 -3.18056e-015 -0 33.1564 5.83744 12.5355 56.6886 27.9212 -21.7756 6.60547 -29.0467 47.3787 1.85284 1.73852 -22.562 8.94531e-016 0 -3.97569e-016 1.98785e-015 -3.18056e-015 -3.97569e-016 -2.0979 3.64745 0.278771 
7.72885 95.2898 -7.88345 0.198521 -4.13909 1.98702 -0.0630563 1.23058 -0.300669 5.51533 -5.43699 9.08351 -0.966874 16.1836 -1.97981 -3.00981 -6.87891 0.307004 0.706366 -9.86554 -0.161443 -7.95351 -3.37672 -2.23767 -0.379136 16.2837 5.12706 0.791079 -9.14774 -10.6956 -0.700939 -11.5887 0.332639 -0.219677 2.46173 -0.599405 -0.219677 2.46173 -0.599405 -1.56892 0.315902 0.453375 -28.0176 5.80717 -12.8692 -50.2354 41.7493 6.09031 11.1956 -0.994775 -23.712 -2.63533 -0.527231 -2.22384 -3.18055e-015 3.18055e-015 1.59028e-015 -3.18055e-015 0 3.18055e-015 32.9517 5.71776 12.4259 55.7316 24.6234 -21.8281 2.9943 -22.3872 54.0957 -1.38079 3.202 -21.2939 1.59028e-015 3.18055e-015 -1.59028e-015 1.59028e-015 3.18056e-015 -0 -1.9521 3.74634 0.472458 
7.85695 95.186 -7.97087 0.23263 -3.80216 3.11848 -0.122218 1.13039 -0.237714 5.44395 -6.35219 8.83861 -0.757995 17.0048 -2.6532 -2.90376 -7.11791 0.0276732 0.721682 -9.85463 -0.138867 -8.04233 -3.57592 -1.90632 -0.00790338 16.7436 4.41608 0.735699 -9.51589 -11.4684 -0.714033 -11.5596 0.227377 -0.337099 2.26147 -0.472517 -0.337099 2.26147 -0.472518 -1.73154 0.33357 0.653225 -27.8216 5.80457 -12.8444 -50.6328 41.5699 6.79842 11.2489 -0.941192 -23.387 -2.86793 -0.489058 -2.30632 3.18055e-015 0 1.59028e-015 3.18055e-015 3.18056e-015 -0 32.2603 5.5506 12.5168 53.5983 19.8179 -21.0347 -4.61819 -12.188 61.3594 -2.96224 4.52607 -19.5983 1.59028e-015 9.54166e-015 6.36111e-015 1.59028e-015 1.27222e-014 6.36111e-015 -2.12352 3.708 0.661927 
8.00405 95.0466 -7.9917 0.134956 -3.40247 4.51492 -0.176221 1.00911 -0.13729 5.42789 -7.50825 8.34785 -0.465797 18.1884 -3.54564 -2.79437 -7.56211 -0.171053 0.757777 -9.84985 -0.0622953 -8.02415 -3.685 -2.92992 -0.0179181 17.1937 4.34658 0.771032 -9.94518 -11.7828 -0.68082 -11.5406 0.12721 -0.439438 2.01872 -0.270914 -0.439441 2.01874 -0.270917 -1.64404 0.310778 0.789824 -27.7434 5.83851 -12.8876 -51.0551 41.0875 7.41617 11.3348 -0.536343 -23.1403 -2.90381 -0.463707 -2.01753 4.77083e-015 3.18055e-015 1.59028e-015 6.36111e-015 3.18056e-015 1.59028e-015 31.3141 5.38714 12.4532 50.0824 14.1594 -19.057 -15.1543 -2.20974 70.9135 -2.66996 5.4327 -16.1299 9.54166e-015 3.18055e-015 3.18055e-015 9.54166e-015 6.36111e-015 3.18055e-015 -2.31566 3.73346 0.870685 
8.31988 94.8826 -7.81149 0.273507 -3.85159 7.32599 -0.228227 1.05415 -0.227057 4.93799 -8.12921 5.15289 -0.659506 19.3736 -3.9118 -2.40109 -8.02563 0.573763 0.783618 -9.82379 0.0801074 -8.32208 -2.49855 -5.86844 -0.23976 17.4782 5.01188 0.826696 -10.5972 -11.909 -0.562628 -11.5334 -0.0250083 -0.516312 2.10929 -0.447533 -0.516314 2.10931 -0.447534 -1.76279 0.318404 0.897526 -27.6818 5.87159 -12.9329 -51.6488 40.9582 8.35208 11.7731 -0.31453 -23.1706 -3.33606 -0.445445 -2.2444 -3.18055e-015 6.36111e-015 3.18055e-015 -8.82782e-032 3.18056e-015 1.59028e-015 29.9614 5.1105 12.4026 46.0773 6.9175 -15.5587 -28.2344 5.0803 84.0461 -3.38388 6.33932 -12.8553 6.36111e-015 -1.59028e-015 -1.59028e-015 6.36111e-015 -2.38542e-015 -0 -2.45083 3.58871 0.971848 
8.34773 94.7261 -8.18551 -0.213996 -2.46634 8.10477 -0.223527 0.760428 0.174599 5.23903 -10.3297 6.69009 0.000222688 20.7346 -5.99036 -2.2479 -8.34799 -0.0551744 0.78039 -9.82703 0.0551631 -7.81852 -3.95046 -3.68778 0.214382 18.0899 3.11117 0.676003 -10.7859 -13.4225 -0.446975 -11.4955 -0.262944 -0.502358 1.52007 0.353069 -0.502361 1.52008 0.353076 -2.35931 -0.315353 1.03719 -27.27 6.41388 -12.4753 -51.1048 41.5658 8.06413 11.8977 0.272353 -23.1478 -3.65345 -0.483725 -1.34435 4.77083e-015 -9.54166e-015 -1.59028e-015 3.18055e-015 -3.18056e-015 -1.59028e-015 28.7403 5.26386 11.8394 43.1933 7.09281 -8.93482 -35.296 2.36466 93.5376 -8.67164 9.02067 -11.5178 -3.18055e-015 -5.1684e-015 3.18055e-015 -1.59028e-015 -7.95139e-015 4.77083e-015 -1.85414 3.75004 0.793778 
8.72973 94.6173 -8.17765 -0.209021 -2.20375 10.3189 -0.303356 0.667909 0.397343 4.69845 -11.2887 5.8073 0.463553 21.4947 -7.06275 -1.97754 -8.46298 -0.532921 0.775621 -9.84873 0.00222809 -7.98037 -3.46611 -4.7164 0.29774 18.1066 2.63996 0.709724 -11.0997 -14.1253 -0.270087 -11.4808 -0.491868 -0.638066 1.33357 0.799901 -0.638065 1.33357 0.7999 -2.35562 -0.280288 0.897078 -27.3602 6.43962 -12.6624 -50.8834 41.781 8.43064 12.0967 0.50612 -23.4725 -4.15232 -0.520054 -1.68918 -3.18055e-015 0 -1.59028e-015 -3.18055e-015 3.18056e-015 -1.59028e-015 25.9916 4.86433 11.8525 40.6054 6.27331 1.33125 -40.1819 -0.93495 99.1827 -15.9994 11.9492 -9.98607 -7.95139e-016 6.36111e-015 3.18055e-015 -2.38542e-015 6.36111e-015 -0 -1.88837 3.58235 0.663856 
